<svg width="56" height="56" viewBox="0 0 56 56" fill="none" xmlns="http://www.w3.org/2000/svg">
<rect width="10" height="2" transform="matrix(-1 0 0 1 46 12)" fill="#4AC34A" style="fill:#4AC34A;fill:color(display-p3 0.2902 0.7647 0.2902);fill-opacity:1;"/>
<rect width="6" height="6" transform="matrix(-1 0 0 1 44 10)" fill="#4AC34A" style="fill:#4AC34A;fill:color(display-p3 0.2902 0.7647 0.2902);fill-opacity:1;"/>
<rect width="2" height="10" transform="matrix(-1 0 0 1 42 8)" fill="#4AC34A" style="fill:#4AC34A;fill:color(display-p3 0.2902 0.7647 0.2902);fill-opacity:1;"/>
<rect width="5" height="1" transform="matrix(-1 0 0 1 52.5 19.5)" fill="#4AC34A" style="fill:#4AC34A;fill:color(display-p3 0.2902 0.7647 0.2902);fill-opacity:1;"/>
<rect width="3" height="3" transform="matrix(-1 0 0 1 51.5 18.5)" fill="#4AC34A" style="fill:#4AC34A;fill:color(display-p3 0.2902 0.7647 0.2902);fill-opacity:1;"/>
<rect width="1" height="5" transform="matrix(-1 0 0 1 50.5 17.5)" fill="#4AC34A" style="fill:#4AC34A;fill:color(display-p3 0.2902 0.7647 0.2902);fill-opacity:1;"/>
<rect x="14.7998" y="14" width="14.4" height="2.88" fill="#4AC34A" style="fill:#4AC34A;fill:color(display-p3 0.2920 0.7660 0.2920);fill-opacity:1;"/>
<rect x="11.9199" y="16.88" width="2.88" height="2.88" fill="#4AC34A" style="fill:#4AC34A;fill:color(display-p3 0.2920 0.7660 0.2920);fill-opacity:1;"/>
<rect x="9.03979" y="19.76" width="2.88" height="2.88" fill="#4AC34A" style="fill:#4AC34A;fill:color(display-p3 0.2920 0.7660 0.2920);fill-opacity:1;"/>
<rect x="9.03979" y="31.28" width="2.88" height="4.08" fill="#4AC34A" style="fill:#4AC34A;fill:color(display-p3 0.2920 0.7660 0.2920);fill-opacity:1;"/>
<rect x="9.03979" y="41.12" width="2.88" height="2.88" fill="#4AC34A" style="fill:#4AC34A;fill:color(display-p3 0.2920 0.7660 0.2920);fill-opacity:1;"/>
<rect x="11.9199" y="37.04" width="2.88" height="2.88" fill="#4AC34A" style="fill:#4AC34A;fill:color(display-p3 0.2920 0.7660 0.2920);fill-opacity:1;"/>
<rect x="20.5598" y="37.04" width="2.88" height="2.88" fill="#4AC34A" style="fill:#4AC34A;fill:color(display-p3 0.2920 0.7660 0.2920);fill-opacity:1;"/>
<rect x="14.7998" y="41.12" width="5.76" height="2.88" fill="#4AC34A" style="fill:#4AC34A;fill:color(display-p3 0.2920 0.7660 0.2920);fill-opacity:1;"/>
<rect x="23.4399" y="41.12" width="5.76" height="2.88" fill="#4AC34A" style="fill:#4AC34A;fill:color(display-p3 0.2920 0.7660 0.2920);fill-opacity:1;"/>
<rect x="29.2" y="37.04" width="2.88" height="2.88" fill="#4AC34A" style="fill:#4AC34A;fill:color(display-p3 0.2920 0.7660 0.2920);fill-opacity:1;"/>
<rect x="32.0798" y="41.12" width="2.88" height="2.88" fill="#4AC34A" style="fill:#4AC34A;fill:color(display-p3 0.2920 0.7660 0.2920);fill-opacity:1;"/>
<rect x="32.0798" y="31.28" width="2.88" height="4.08" fill="#4AC34A" style="fill:#4AC34A;fill:color(display-p3 0.2920 0.7660 0.2920);fill-opacity:1;"/>
<rect x="32.0798" y="19.76" width="2.88" height="2.88" fill="#4AC34A" style="fill:#4AC34A;fill:color(display-p3 0.2920 0.7660 0.2920);fill-opacity:1;"/>
<rect x="29.2" y="16.88" width="2.88" height="2.88" fill="#4AC34A" style="fill:#4AC34A;fill:color(display-p3 0.2920 0.7660 0.2920);fill-opacity:1;"/>
<rect x="6.15991" y="22.64" width="2.88" height="8.64" fill="#4AC34A" style="fill:#4AC34A;fill:color(display-p3 0.2920 0.7660 0.2920);fill-opacity:1;"/>
<rect x="6.15991" y="35.36" width="2.88" height="5.76" fill="#4AC34A" style="fill:#4AC34A;fill:color(display-p3 0.2920 0.7660 0.2920);fill-opacity:1;"/>
<rect x="34.96" y="35.36" width="2.88" height="5.76" fill="#4AC34A" style="fill:#4AC34A;fill:color(display-p3 0.2920 0.7660 0.2920);fill-opacity:1;"/>
<rect x="34.96" y="22.64" width="2.88" height="8.64" fill="#4AC34A" style="fill:#4AC34A;fill:color(display-p3 0.2920 0.7660 0.2920);fill-opacity:1;"/>
<path d="M32.0798 35.3604H34.9597V41.1201H9.03979V35.3604H11.9197V31.2803H9.03979V22.6396H11.9197V19.7598H14.7996V16.8799H29.2V19.7598H32.0798V22.6396H34.9597V31.2803H32.0798V35.3604Z" fill="#ACEFAC" style="fill:#ACEFAC;fill:color(display-p3 0.6762 0.9357 0.6762);fill-opacity:1;"/>
<rect x="23.4399" y="23.72" width="7.56" height="7.56" fill="#010101" style="fill:#010101;fill:color(display-p3 0.0039 0.0039 0.0039);fill-opacity:1;"/>
<rect x="30.04" y="27.5599" width="2.88" height="2.88" transform="rotate(180 30.04 27.5599)" fill="white" style="fill:white;fill-opacity:1;"/>
<rect x="13" y="23.72" width="7.56" height="7.56" fill="#010101" style="fill:#010101;fill:color(display-p3 0.0039 0.0039 0.0039);fill-opacity:1;"/>
<rect x="19.6001" y="27.5599" width="2.88" height="2.88" transform="rotate(180 19.6001 27.5599)" fill="white" style="fill:white;fill-opacity:1;"/>
</svg>
