<svg width="56" height="56" viewBox="0 0 56 56" fill="none" xmlns="http://www.w3.org/2000/svg">
<rect width="2" height="2" transform="matrix(-1 0 0 1 39 8.9801)" fill="#DEDEDE" style="fill:#DEDEDE;fill:color(display-p3 0.8722 0.8722 0.8722);fill-opacity:1;"/>
<rect width="2" height="2" transform="matrix(-1 0 0 1 37 10.9801)" fill="#DEDEDE" style="fill:#DEDEDE;fill:color(display-p3 0.8722 0.8722 0.8722);fill-opacity:1;"/>
<rect width="2" height="2" transform="matrix(-1 0 0 1 35.0005 12.98)" fill="#DEDEDE" style="fill:#DEDEDE;fill:color(display-p3 0.8722 0.8722 0.8722);fill-opacity:1;"/>
<rect width="2" height="2" transform="matrix(-1 0 0 1 37 14.9801)" fill="#DEDEDE" style="fill:#DEDEDE;fill:color(display-p3 0.8722 0.8722 0.8722);fill-opacity:1;"/>
<rect width="2" height="2" transform="matrix(-1 0 0 1 39 16.9801)" fill="#DEDEDE" style="fill:#DEDEDE;fill:color(display-p3 0.8722 0.8722 0.8722);fill-opacity:1;"/>
<rect x="44.7039" y="8" width="2" height="12" transform="rotate(20 44.7039 8)" fill="#DEDEDE" style="fill:#DEDEDE;fill:color(display-p3 0.8722 0.8722 0.8722);fill-opacity:1;"/>
<rect x="48.1831" y="8.98022" width="2" height="2" fill="#DEDEDE" style="fill:#DEDEDE;fill:color(display-p3 0.8722 0.8722 0.8722);fill-opacity:1;"/>
<rect x="50.1831" y="10.9803" width="2" height="2" fill="#DEDEDE" style="fill:#DEDEDE;fill:color(display-p3 0.8722 0.8722 0.8722);fill-opacity:1;"/>
<rect x="52.1826" y="12.9802" width="2" height="2" fill="#DEDEDE" style="fill:#DEDEDE;fill:color(display-p3 0.8722 0.8722 0.8722);fill-opacity:1;"/>
<rect x="50.1831" y="14.9802" width="2" height="2" fill="#DEDEDE" style="fill:#DEDEDE;fill:color(display-p3 0.8722 0.8722 0.8722);fill-opacity:1;"/>
<rect x="48.1831" y="16.9802" width="2" height="2" fill="#DEDEDE" style="fill:#DEDEDE;fill:color(display-p3 0.8722 0.8722 0.8722);fill-opacity:1;"/>
<rect x="14.7998" y="14" width="14.4" height="2.88" fill="#A599FF" style="fill:#A599FF;fill:color(display-p3 0.6471 0.6000 1.0000);fill-opacity:1;"/>
<rect x="11.9199" y="16.88" width="2.88" height="2.88" fill="#A599FF" style="fill:#A599FF;fill:color(display-p3 0.6471 0.6000 1.0000);fill-opacity:1;"/>
<rect x="9.03979" y="19.76" width="2.88" height="2.88" fill="#A599FF" style="fill:#A599FF;fill:color(display-p3 0.6471 0.6000 1.0000);fill-opacity:1;"/>
<rect x="9.03979" y="31.28" width="2.88" height="4.08" fill="#A599FF" style="fill:#A599FF;fill:color(display-p3 0.6471 0.6000 1.0000);fill-opacity:1;"/>
<rect x="9.03979" y="41.12" width="2.88" height="2.88" fill="#A599FF" style="fill:#A599FF;fill:color(display-p3 0.6471 0.6000 1.0000);fill-opacity:1;"/>
<rect x="11.9199" y="37.04" width="2.88" height="2.88" fill="#A599FF" style="fill:#A599FF;fill:color(display-p3 0.6471 0.6000 1.0000);fill-opacity:1;"/>
<rect x="20.5598" y="37.04" width="2.88" height="2.88" fill="#A599FF" style="fill:#A599FF;fill:color(display-p3 0.6471 0.6000 1.0000);fill-opacity:1;"/>
<rect x="14.7998" y="41.12" width="5.76" height="2.88" fill="#A599FF" style="fill:#A599FF;fill:color(display-p3 0.6471 0.6000 1.0000);fill-opacity:1;"/>
<rect x="23.4399" y="41.12" width="5.76" height="2.88" fill="#A599FF" style="fill:#A599FF;fill:color(display-p3 0.6471 0.6000 1.0000);fill-opacity:1;"/>
<rect x="29.2" y="37.04" width="2.88" height="2.88" fill="#A599FF" style="fill:#A599FF;fill:color(display-p3 0.6471 0.6000 1.0000);fill-opacity:1;"/>
<rect x="32.0798" y="41.12" width="2.88" height="2.88" fill="#A599FF" style="fill:#A599FF;fill:color(display-p3 0.6471 0.6000 1.0000);fill-opacity:1;"/>
<rect x="32.0798" y="31.28" width="2.88" height="4.08" fill="#A599FF" style="fill:#A599FF;fill:color(display-p3 0.6471 0.6000 1.0000);fill-opacity:1;"/>
<rect x="32.0798" y="19.76" width="2.88" height="2.88" fill="#A599FF" style="fill:#A599FF;fill:color(display-p3 0.6471 0.6000 1.0000);fill-opacity:1;"/>
<rect x="29.2" y="16.88" width="2.88" height="2.88" fill="#A599FF" style="fill:#A599FF;fill:color(display-p3 0.6471 0.6000 1.0000);fill-opacity:1;"/>
<rect x="6.15991" y="22.64" width="2.88" height="8.64" fill="#A599FF" style="fill:#A599FF;fill:color(display-p3 0.6471 0.6000 1.0000);fill-opacity:1;"/>
<rect x="6.15991" y="35.36" width="2.88" height="5.76" fill="#A599FF" style="fill:#A599FF;fill:color(display-p3 0.6471 0.6000 1.0000);fill-opacity:1;"/>
<rect x="34.96" y="35.36" width="2.88" height="5.76" fill="#A599FF" style="fill:#A599FF;fill:color(display-p3 0.6471 0.6000 1.0000);fill-opacity:1;"/>
<rect x="34.96" y="22.64" width="2.88" height="8.64" fill="#A599FF" style="fill:#A599FF;fill:color(display-p3 0.6471 0.6000 1.0000);fill-opacity:1;"/>
<path d="M32.0798 35.3604H34.9597V41.1201H9.03979V35.3604H11.9197V31.2803H9.03979V22.6396H11.9197V19.7598H14.7996V16.8799H29.2V19.7598H32.0798V22.6396H34.9597V31.2803H32.0798V35.3604Z" fill="#D6D0FF" style="fill:#D6D0FF;fill:color(display-p3 0.8387 0.8172 1.0000);fill-opacity:1;"/>
<rect x="23.4399" y="23.72" width="7.56" height="7.56" fill="#010101" style="fill:#010101;fill:color(display-p3 0.0039 0.0039 0.0039);fill-opacity:1;"/>
<rect x="30.04" y="27.5599" width="2.88" height="2.88" transform="rotate(180 30.04 27.5599)" fill="white" style="fill:white;fill-opacity:1;"/>
<rect x="13" y="23.72" width="7.56" height="7.56" fill="#010101" style="fill:#010101;fill:color(display-p3 0.0039 0.0039 0.0039);fill-opacity:1;"/>
<rect x="19.6001" y="27.5599" width="2.88" height="2.88" transform="rotate(180 19.6001 27.5599)" fill="white" style="fill:white;fill-opacity:1;"/>
</svg>
